<?xml version="1.0" encoding="UTF-8"?>
<svg width="24px" height="20px" viewBox="0 0 24 20" version="1.1" xmlns="http://www.w3.org/2000/svg" xmlns:xlink="http://www.w3.org/1999/xlink">
    <!-- Generator: Sketch 48.2 (47327) - http://www.bohemiancoding.com/sketch -->
    <title>Shape</title>
    <desc>Created with Sketch.</desc>
    <defs></defs>
    <g id="阳江-鉴别示例搜索结果" stroke="none" stroke-width="1" fill="none" fill-rule="evenodd" transform="translate(-507.000000, -169.000000)">
        <g id="领域概念弹出下转页面" fill="#2381F5" fill-rule="nonzero">
            <g id="Group-2" transform="translate(143.000000, 161.000000)">
                <path d="M385.749617,8 L366.250383,8 C365.007035,8 364,8.9915796 364,10.2149422 L364,24.9841546 C364,26.2074906 365.007062,27.2 366.250383,27.2 L385.749617,27.2 C386.991994,27.2 387.999946,26.2075172 387.999946,24.9841546 L388,10.2149422 C387.999029,8.99163273 386.991131,8 385.749617,8 Z M386.124335,22.723759 L381.41688,16.5434547 C381.41688,16.5434547 381.143605,16.0435473 380.182759,16.0435473 C379.092627,16.0435473 378.764935,16.5279937 378.764935,16.5279937 L374.641747,22.794662 C374.641747,22.794662 374.417466,23.2145811 373.867302,23.2145811 C373.291317,23.2145811 373.016262,22.794662 373.016262,22.794662 L370.848058,20.3543391 C370.848058,20.3543391 370.29239,19.6299807 369.570582,19.6299807 C368.851498,19.6299807 368.254308,20.4315647 368.254308,20.4315647 L365.874721,23.3508881 L365.874721,10.6112181 C365.874721,10.2040504 366.210723,9.87227528 366.625154,9.87227528 L385.374846,9.87227528 C385.789331,9.87227528 386.125306,10.2039973 386.125306,10.6112181 L386.125306,22.723759 L386.124335,22.723759 Z M374.872475,14.6465799 C374.872475,16.0916838 373.683625,17.2623407 372.216888,17.2623407 C370.75015,17.2623407 369.560356,16.0908071 369.560356,14.6465799 C369.560356,13.2032825 370.750177,12.0317224 372.216888,12.0317224 C373.683599,12.0326522 374.872475,13.2033091 374.872475,14.6465799 Z" id="Shape"></path>
            </g>
        </g>
    </g>
</svg>