<?xml version="1.0" encoding="UTF-8"?>
<svg width="28px" height="30px" viewBox="0 0 28 30" version="1.1" xmlns="http://www.w3.org/2000/svg" xmlns:xlink="http://www.w3.org/1999/xlink">
    <!-- Generator: Sketch 48.2 (47327) - http://www.bohemiancoding.com/sketch -->
    <title>Shape</title>
    <desc>Created with Sketch.</desc>
    <defs>
        <linearGradient x1="50%" y1="0%" x2="50%" y2="100%" id="linearGradient-1">
            <stop stop-color="#84A3FF" offset="0%"></stop>
            <stop stop-color="#2D73FF" offset="100%"></stop>
        </linearGradient>
    </defs>
    <g id="阳江-鉴别示例" stroke="none" stroke-width="1" fill="none" fill-rule="evenodd" transform="translate(-1306.000000, -142.000000)">
        <g id="鉴定文案" transform="translate(1289.000000, 142.000000)" fill="url(#linearGradient-1)" fill-rule="nonzero">
            <path d="M29.5681249,16.3572686 L23.0079633,16.3572686 C22.2934959,16.357378 21.7143929,16.9366567 21.714502,17.6511271 C21.7146114,18.3654398 22.2936505,18.9444791 23.0079633,18.9445883 L28.984674,18.9445883 C29.0687618,19.0959466 29.1761358,19.2369556 29.3042091,19.3663206 L30.4736791,20.5344958 L25.5952859,25.4128889 L19.7738144,25.4128889 C18.7021118,25.4128889 17.8333239,24.544101 17.8333239,23.4723984 C17.8333239,23.4723984 17.8333239,23.4723984 17.8333239,23.4723984 L17.8333239,2.77382301 L17.8333239,2.77382281 C17.833324,1.70212022 18.7021118,0.833332307 19.7738144,0.833332307 L35.2977384,0.833332307 C36.3694409,0.833332388 37.2382288,1.70212022 37.2382288,2.77382281 L37.2382288,11.1088662 C36.4655103,10.4996947 35.3591578,10.5652984 34.6638437,11.2615182 L33.3533668,12.5719951 L33.3572478,12.4762644 C33.3572478,11.761797 32.7780568,11.182603 32.0635864,11.182603 C32.0635864,11.182603 32.0635864,11.182603 32.0635864,11.182603 L23.007954,11.182603 C22.2934867,11.1824936 21.7142048,11.7615969 21.7140956,12.4760643 C21.7139862,13.1905316 22.2930895,13.7698135 23.0075569,13.7699227 C23.0076889,13.7699227 23.0078209,13.7699227 23.007953,13.7699227 L32.0635854,13.7699227 C32.095927,13.7699227 32.1282683,13.7699227 32.1593162,13.7660417 L29.5668208,16.3572423 L29.5681249,16.3572686 Z M35.9445767,26.7065412 L43.7065387,26.7065412 C44.4210061,26.7066506 45.0001092,27.2859322 45,28.0003996 C44.9998906,28.7147124 44.4208515,29.2937517 43.7065388,29.2938609 L35.9445768,29.2938609 C35.2301094,29.2937515 34.6510064,28.7144728 34.6511155,28.0000024 C34.6512249,27.2856897 35.230264,26.7066503 35.9445768,26.7065412 Z M23.0079633,6.00796576 C22.2934958,6.00796579 21.7143019,6.5871567 21.7143019,7.30162711 C21.7143019,8.01609448 22.2934928,8.59528845 23.0079632,8.59528845 L32.0635957,8.59528845 C32.7780631,8.59528839 33.3572571,8.01609751 33.3572571,7.30162711 C33.357257,6.58715973 32.7780661,6.00796576 32.0635957,6.00796576 L23.0079633,6.00796576 Z M40.8449519,18.9574956 L40.8449521,18.9574955 C41.8109161,18.4933181 42.9702743,18.9000985 43.4344518,19.8660635 C43.7920447,20.6102264 43.639611,21.4991712 43.0545219,22.0816852 L40.3093737,24.8242441 C39.550557,25.5810415 38.3219082,25.5794072 37.5651078,24.8205896 C36.9859987,24.2399372 36.8344312,23.3579267 37.1864786,22.6172596 L34.2860912,19.7168721 C33.3201271,20.1810496 32.1607689,19.7742691 31.6965915,18.8083042 C31.3389985,18.0641412 31.4914322,17.1751965 32.0765213,16.5926825 L34.8216696,13.8488289 C35.5798405,13.0913826 36.8084893,13.0919678 37.5659385,13.8501374 C38.1466819,14.4314326 38.2983494,15.3154836 37.9445677,16.0571088 L40.8449551,18.9574963 L40.8449519,18.9574956 Z M34.3637137,19.7944928 L37.1075672,22.5383464 L31.1619044,28.4840093 C30.3910415,29.228533 29.1625746,29.2071815 28.4180508,28.436319 C27.6917586,27.6843334 27.6917586,26.4921415 28.4180508,25.740156 L34.3637137,19.7944931 L34.3637137,19.7944928 Z" id="Shape"></path>
        </g>
    </g>
</svg>